<mxfile host="app.diagrams.net" modified="2024-04-16T02:03:17.550Z" agent="Mozilla/5.0 (Windows NT 10.0; Win64; x64) AppleWebKit/537.36 (KHTML, like Gecko) Chrome/123.0.0.0 Safari/537.36 Edg/123.0.0.0" etag="vBOq80dCMhd3-DSVuSPr" version="24.2.5" type="github">
  <diagram name="Page-1" id="6rtzGgmO1tUjo8vaw5kd">
    <mxGraphModel dx="1189" dy="687" grid="1" gridSize="10" guides="1" tooltips="1" connect="1" arrows="1" fold="1" page="1" pageScale="1" pageWidth="850" pageHeight="1100" math="0" shadow="0">
      <root>
        <mxCell id="0" />
        <mxCell id="1" parent="0" />
        <mxCell id="6cH2EJembwBuiCUfPoCa-1" value="" style="rounded=1;whiteSpace=wrap;html=1;" vertex="1" parent="1">
          <mxGeometry x="310" y="330" width="110" height="110" as="geometry" />
        </mxCell>
        <mxCell id="6cH2EJembwBuiCUfPoCa-2" value="" style="endArrow=none;html=1;rounded=0;entryX=1;entryY=0.25;entryDx=0;entryDy=0;exitX=0;exitY=0.25;exitDx=0;exitDy=0;" edge="1" parent="1" source="6cH2EJembwBuiCUfPoCa-1" target="6cH2EJembwBuiCUfPoCa-1">
          <mxGeometry width="50" height="50" relative="1" as="geometry">
            <mxPoint x="330" y="390" as="sourcePoint" />
            <mxPoint x="380" y="340" as="targetPoint" />
          </mxGeometry>
        </mxCell>
        <mxCell id="6cH2EJembwBuiCUfPoCa-3" value="0" style="text;html=1;align=center;verticalAlign=middle;whiteSpace=wrap;rounded=0;" vertex="1" parent="1">
          <mxGeometry x="335" y="330" width="60" height="30" as="geometry" />
        </mxCell>
        <mxCell id="6cH2EJembwBuiCUfPoCa-4" value="Apartment Rental System" style="text;html=1;align=center;verticalAlign=middle;whiteSpace=wrap;rounded=0;" vertex="1" parent="1">
          <mxGeometry x="335" y="380" width="60" height="30" as="geometry" />
        </mxCell>
        <mxCell id="6cH2EJembwBuiCUfPoCa-5" value="" style="rounded=0;whiteSpace=wrap;html=1;" vertex="1" parent="1">
          <mxGeometry x="60" y="280" width="90" height="40" as="geometry" />
        </mxCell>
        <mxCell id="6cH2EJembwBuiCUfPoCa-6" value="Tenant" style="text;html=1;align=center;verticalAlign=middle;whiteSpace=wrap;rounded=0;" vertex="1" parent="1">
          <mxGeometry x="75" y="285" width="60" height="30" as="geometry" />
        </mxCell>
        <mxCell id="6cH2EJembwBuiCUfPoCa-8" value="" style="rounded=0;whiteSpace=wrap;html=1;" vertex="1" parent="1">
          <mxGeometry x="570" y="440" width="90" height="40" as="geometry" />
        </mxCell>
        <mxCell id="6cH2EJembwBuiCUfPoCa-9" value="Clerk" style="text;html=1;align=center;verticalAlign=middle;whiteSpace=wrap;rounded=0;" vertex="1" parent="1">
          <mxGeometry x="585" y="445" width="60" height="30" as="geometry" />
        </mxCell>
        <mxCell id="6cH2EJembwBuiCUfPoCa-10" value="" style="endArrow=classic;html=1;rounded=0;entryX=0.5;entryY=0;entryDx=0;entryDy=0;exitX=1;exitY=0.5;exitDx=0;exitDy=0;" edge="1" parent="1" source="6cH2EJembwBuiCUfPoCa-5" target="6cH2EJembwBuiCUfPoCa-3">
          <mxGeometry width="50" height="50" relative="1" as="geometry">
            <mxPoint x="210" y="325" as="sourcePoint" />
            <mxPoint x="260" y="275" as="targetPoint" />
            <Array as="points">
              <mxPoint x="365" y="300" />
            </Array>
          </mxGeometry>
        </mxCell>
        <mxCell id="6cH2EJembwBuiCUfPoCa-11" value="Personal Information" style="text;html=1;align=center;verticalAlign=middle;whiteSpace=wrap;rounded=0;" vertex="1" parent="1">
          <mxGeometry x="220" y="270" width="60" height="30" as="geometry" />
        </mxCell>
        <mxCell id="6cH2EJembwBuiCUfPoCa-12" value="" style="endArrow=classic;html=1;rounded=0;entryX=0.5;entryY=0;entryDx=0;entryDy=0;exitX=1;exitY=0.5;exitDx=0;exitDy=0;" edge="1" parent="1" target="6cH2EJembwBuiCUfPoCa-8">
          <mxGeometry width="50" height="50" relative="1" as="geometry">
            <mxPoint x="420" y="400" as="sourcePoint" />
            <mxPoint x="635" y="430" as="targetPoint" />
            <Array as="points">
              <mxPoint x="615" y="400" />
            </Array>
          </mxGeometry>
        </mxCell>
        <mxCell id="6cH2EJembwBuiCUfPoCa-13" value="Tenant Information" style="text;html=1;align=center;verticalAlign=middle;whiteSpace=wrap;rounded=0;" vertex="1" parent="1">
          <mxGeometry x="500" y="370" width="60" height="30" as="geometry" />
        </mxCell>
        <mxCell id="6cH2EJembwBuiCUfPoCa-14" value="" style="endArrow=classic;html=1;rounded=0;entryX=0;entryY=0.5;entryDx=0;entryDy=0;exitX=0.5;exitY=1;exitDx=0;exitDy=0;" edge="1" parent="1" source="6cH2EJembwBuiCUfPoCa-5" target="6cH2EJembwBuiCUfPoCa-1">
          <mxGeometry width="50" height="50" relative="1" as="geometry">
            <mxPoint x="120" y="390" as="sourcePoint" />
            <mxPoint x="170" y="340" as="targetPoint" />
            <Array as="points">
              <mxPoint x="105" y="385" />
            </Array>
          </mxGeometry>
        </mxCell>
        <mxCell id="6cH2EJembwBuiCUfPoCa-15" value="Payment" style="text;html=1;align=center;verticalAlign=middle;whiteSpace=wrap;rounded=0;" vertex="1" parent="1">
          <mxGeometry x="170" y="350" width="60" height="30" as="geometry" />
        </mxCell>
        <mxCell id="6cH2EJembwBuiCUfPoCa-16" value="" style="endArrow=classic;html=1;rounded=0;entryX=0.5;entryY=1;entryDx=0;entryDy=0;exitX=0.5;exitY=1;exitDx=0;exitDy=0;" edge="1" parent="1" source="6cH2EJembwBuiCUfPoCa-1" target="6cH2EJembwBuiCUfPoCa-8">
          <mxGeometry width="50" height="50" relative="1" as="geometry">
            <mxPoint x="410" y="500" as="sourcePoint" />
            <mxPoint x="460" y="450" as="targetPoint" />
            <Array as="points">
              <mxPoint x="365" y="560" />
              <mxPoint x="615" y="560" />
            </Array>
          </mxGeometry>
        </mxCell>
        <mxCell id="6cH2EJembwBuiCUfPoCa-17" value="Transaction report" style="text;html=1;align=center;verticalAlign=middle;whiteSpace=wrap;rounded=0;" vertex="1" parent="1">
          <mxGeometry x="470" y="530" width="60" height="30" as="geometry" />
        </mxCell>
        <mxCell id="6cH2EJembwBuiCUfPoCa-18" value="" style="endArrow=classic;html=1;rounded=0;exitX=0;exitY=0.75;exitDx=0;exitDy=0;entryX=0.75;entryY=1;entryDx=0;entryDy=0;" edge="1" parent="1" source="6cH2EJembwBuiCUfPoCa-8" target="6cH2EJembwBuiCUfPoCa-1">
          <mxGeometry width="50" height="50" relative="1" as="geometry">
            <mxPoint x="450" y="490" as="sourcePoint" />
            <mxPoint x="500" y="440" as="targetPoint" />
            <Array as="points">
              <mxPoint x="570" y="510" />
              <mxPoint x="480" y="510" />
              <mxPoint x="392" y="510" />
            </Array>
          </mxGeometry>
        </mxCell>
        <mxCell id="6cH2EJembwBuiCUfPoCa-19" value="Room availability" style="text;html=1;align=center;verticalAlign=middle;whiteSpace=wrap;rounded=0;" vertex="1" parent="1">
          <mxGeometry x="460" y="475" width="60" height="30" as="geometry" />
        </mxCell>
        <mxCell id="6cH2EJembwBuiCUfPoCa-20" value="" style="endArrow=classic;html=1;rounded=0;entryX=0.09;entryY=0.997;entryDx=0;entryDy=0;entryPerimeter=0;exitX=0;exitY=0.75;exitDx=0;exitDy=0;" edge="1" parent="1" source="6cH2EJembwBuiCUfPoCa-1" target="6cH2EJembwBuiCUfPoCa-5">
          <mxGeometry width="50" height="50" relative="1" as="geometry">
            <mxPoint x="225" y="490" as="sourcePoint" />
            <mxPoint x="275" y="440" as="targetPoint" />
            <Array as="points">
              <mxPoint x="70" y="413" />
            </Array>
          </mxGeometry>
        </mxCell>
        <mxCell id="6cH2EJembwBuiCUfPoCa-21" value="Room key" style="text;html=1;align=center;verticalAlign=middle;whiteSpace=wrap;rounded=0;" vertex="1" parent="1">
          <mxGeometry x="140" y="410" width="60" height="30" as="geometry" />
        </mxCell>
      </root>
    </mxGraphModel>
  </diagram>
</mxfile>
